<svg xmlns="http://www.w3.org/2000/svg" viewBox="0 0 1000 1000" role="img" xmlns:c2pa="http://c2pa.org/manifest"><metadata><c2pa:manifest>AAAWgmp1bWIAAAAeanVtZGMycGEAEQAQgAAAqgA4m3EDYzJwYQAAABZcanVtYgAAAEdqdW1kYzJtYQARABCAAACqADibcQN1cm46YzJwYTozZWY4ZWYwMi0wN2QyLTQxNGUtOGU2My0wMzQ1MjJjNGMzMTQAAAADl2p1bWIAAAApanVtZGMyYXMAEQAQgAAAqgA4m3EDYzJwYS5hc3NlcnRpb25zAAAAALxqdW1iAAAARGp1bWRjYm9yABEAEIAAAKoAOJtxE2MycGEuaW5ncmVkaWVudC52MwAAAAAYYzJzaOKRl6p4ipmfNGksW8OYpsYAAABwY2JvcqNpZGM6Zm9ybWF0bWltYWdlL3N2Zyt4bWxqaW5zdGFuY2VJRHgseG1wOmlpZDo2ODRhYjg3MC1hZTliLTRkNzgtOGUzZS01YzYwMjcyOTg4ZDZscmVsYXRpb25zaGlwaHBhcmVudE9mAAAB4mp1bWIAAABBanVtZGNib3IAEQAQgAAAqgA4m3ETYzJwYS5hY3Rpb25zLnYyAAAAABhjMnNor5orJNMi5oBy4TH2BBUIIgAAAZljYm9yomdhY3Rpb25zgqJmYWN0aW9ua2MycGEub3BlbmVkanBhcmFtZXRlcnOha2luZ3JlZGllbnRzgaJjdXJseC1zZWxmI2p1bWJmPWMycGEuYXNzZXJ0aW9ucy9jMnBhLmluZ3JlZGllbnQudjNkaGFzaFggcIUrSrTU+ew+QjlZqeWpZHz/jZ7Vx1TR8RJIsKSnVSGkZmFjdGlvbngdY29tLmFudGhyb3BpYy5jbGF1ZGUucHJvdmlkZWRqcGFyYW1ldGVyc6F4H2NvbS5hbnRocm9waWMub3JpZ2luLWNvbmZpZGVuY2VndW5rbm93bmtkZXNjcmlwdGlvbnhmQ2xhdWRlIHByb3ZpZGVkIHRoaXMgZmlsZSBhdCB0aGUgcmVxdWVzdCBvZiBhIHVzZXIgYW5kIG1heSBoYXZlIGNyZWF0ZWQgb3IgbW9kaWZpZWQgdGhlIGZpbGUgY29udGVudHMubXNvZnR3YXJlQWdlbnShZG5hbWVmQ2xhdWRlcmFsbEFjdGlvbnNJbmNsdWRlZPUAAADIanVtYgAAAEBqdW1kY2JvcgARABCAAACqADibcRNjMnBhLmhhc2guZGF0YQAAAAAYYzJzaNRYC4Vr8wPjB7wSiVwHg1sAAACAY2JvcqVjYWxnZnNoYTI1NmNwYWRNAAAAAAAAAAAAAAAAAGRoYXNoWCA6X+V1/q3KUxzIj+tUuZ5ZfYJYlwkxA/6UpnUDbYxDk2RuYW1lbmp1bWJmIG1hbmlmZXN0amV4Y2x1c2lvbnOBomVzdGFydBiKZmxlbmd0aBkeBAAAAj5qdW1iAAAAJ2p1bWRjMmNsABEAEIAAAKoAOJtxA2MycGEuY2xhaW0udjIAAAACD2Nib3KlY2FsZ2ZzaGEyNTZpc2lnbmF0dXJleE1zZWxmI2p1bWJmPS9jMnBhL3VybjpjMnBhOjNlZjhlZjAyLTA3ZDItNDE0ZS04ZTYzLTAzNDUyMmM0YzMxNC9jMnBhLnNpZ25hdHVyZWppbnN0YW5jZUlEeCx4bXA6aWlkOjAyZjlmOGY3LWY1YjktNDMxNy04OGQzLWE1MWEyY2FkNmViMXJjcmVhdGVkX2Fzc2VydGlvbnODomN1cmx4LXNlbGYjanVtYmY9YzJwYS5hc3NlcnRpb25zL2MycGEuaW5ncmVkaWVudC52M2RoYXNoWCBwhStKtNT57D5COVmp5alkfP+NntXHVNHxEkiwpKdVIaJjdXJseCpzZWxmI2p1bWJmPWMycGEuYXNzZXJ0aW9ucy9jMnBhLmFjdGlvbnMudjJkaGFzaFggqwWsIV3ZdjtYMlAYDKlEjz2+gL3LgnA3OPFjPO/Ci9iiY3VybHgpc2VsZiNqdW1iZj1jMnBhLmFzc2VydGlvbnMvYzJwYS5oYXNoLmRhdGFkaGFzaFggMYyVmYs2uDsp0u8awZNPd9j+ONdJpLacwZlS5rMT/wt0Y2xhaW1fZ2VuZXJhdG9yX2luZm+jZG5hbWVvQW50aHJvcGljIEZpbGVzZ3ZlcnNpb25lMS4wLjBrc3BlY1ZlcnNpb25lMi40LjAAABA4anVtYgAAAChqdW1kYzJjcwARABCAAACqADibcQNjMnBhLnNpZ25hdHVyZQAAABAIY2JvctKEWQISogEmGCFZAgowggIGMIIBjaADAgECAhRA5aAK7sI50L64g/oGQgU9Z1UTADAKBggqhkjOPQQDAzBJMRcwFQYDVQQKEw5BbnRocm9waWMsIFBCQzEuMCwGA1UEAxMlQW50aHJvcGljIENvbnRlbnQgQ3JlZGVudGlhbHMgUm9vdCBDQTAeFw0yNjA4MDcxODQzNTZaFw0yODA4MDYxOTQzNTZaMEQxFzAVBgNVBAoTDkFudGhyb3BpYywgUEJDMSkwJwYDVQQDEyBBbnRocm9waWMgQ2xhdWRlIENvbnRlbnQgU2lnbmluZzBZMBMGByqGSM49AgEGCCqGSM49AwEHA0IABJh6CmvLUBgFFNU0vUKlOVtE6djd17L5SuwX0LemFisBM3dkd/3cyjxFA3Qo5S46fX0/ihY0VZ7mfb9KF703t5OjWDBWMA4GA1UdDwEB/wQEAwIHgDAVBgNVHSUEDjAMBgorBgEEAYPoXgIBMAwGA1UdEwEB/wQCMAAwHwYDVR0jBBgwFoAUzlHiBIFOZFsj+OPEz5o+nMHXXMIwCgYIKoZIzj0EAwMDZwAwZAIwMXMdFJ4BetLLVY7ORuE9noqbbAZOZn/aArXyTwFAZfKrPzxF2vPoJNf1+UCdg1XGAjBwX1zd9WGqYkqmL5SFqw1QySjr1zJfpJM9+1rdDwSPLMOPOjKuiXjoU/pUUeG9RwmhY3BhZFkNngAAAAAAAAAAAAAAAAAAAAAAAAAAAAAAAAAAAAAAAAAAAAAAAAAAAAAAAAAAAAAAAAAAAAAAAAAAAAAAAAAAAAAAAAAAAAAAAAAAAAAAAAAAAAAAAAAAAAAAAAAAAAAAAAAAAAAAAAAAAAAAAAAAAAAAAAAAAAAAAAAAAAAAAAAAAAAAAAAAAAAAAAAAAAAAAAAAAAAAAAAAAAAAAAAAAAAAAAAAAAAAAAAAAAAAAAAAAAAAAAAAAAAAAAAAAAAAAAAAAAAAAAAAAAAAAAAAAAAAAAAAAAAAAAAAAAAAAAAAAAAAAAAAAAAAAAAAAAAAAAAAAAAAAAAAAAAAAAAAAAAAAAAAAAAAAAAAAAAAAAAAAAAAAAAAAAAAAAAAAAAAAAAAAAAAAAAAAAAAAAAAAAAAAAAAAAAAAAAAAAAAAAAAAAAAAAAAAAAAAAAAAAAAAAAAAAAAAAAAAAAAAAAAAAAAAAAAAAAAAAAAAAAAAAAAAAAAAAAAAAAAAAAAAAAAAAAAAAAAAAAAAAAAAAAAAAAAAAAAAAAAAAAAAAAAAAAAAAAAAAAAAAAAAAAAAAAAAAAAAAAAAAAAAAAAAAAAAAAAAAAAAAAAAAAAAAAAAAAAAAAAAAAAAAAAAAAAAAAAAAAAAAAAAAAAAAAAAAAAAAAAAAAAAAAAAAAAAAAAAAAAAAAAAAAAAAAAAAAAAAAAAAAAAAAAAAAAAAAAAAAAAAAAAAAAAAAAAAAAAAAAAAAAAAAAAAAAAAAAAAAAAAAAAAAAAAAAAAAAAAAAAAAAAAAAAAAAAAAAAAAAAAAAAAAAAAAAAAAAAAAAAAAAAAAAAAAAAAAAAAAAAAAAAAAAAAAAAAAAAAAAAAAAAAAAAAAAAAAAAAAAAAAAAAAAAAAAAAAAAAAAAAAAAAAAAAAAAAAAAAAAAAAAAAAAAAAAAAAAAAAAAAAAAAAAAAAAAAAAAAAAAAAAAAAAAAAAAAAAAAAAAAAAAAAAAAAAAAAAAAAAAAAAAAAAAAAAAAAAAAAAAAAAAAAAAAAAAAAAAAAAAAAAAAAAAAAAAAAAAAAAAAAAAAAAAAAAAAAAAAAAAAAAAAAAAAAAAAAAAAAAAAAAAAAAAAAAAAAAAAAAAAAAAAAAAAAAAAAAAAAAAAAAAAAAAAAAAAAAAAAAAAAAAAAAAAAAAAAAAAAAAAAAAAAAAAAAAAAAAAAAAAAAAAAAAAAAAAAAAAAAAAAAAAAAAAAAAAAAAAAAAAAAAAAAAAAAAAAAAAAAAAAAAAAAAAAAAAAAAAAAAAAAAAAAAAAAAAAAAAAAAAAAAAAAAAAAAAAAAAAAAAAAAAAAAAAAAAAAAAAAAAAAAAAAAAAAAAAAAAAAAAAAAAAAAAAAAAAAAAAAAAAAAAAAAAAAAAAAAAAAAAAAAAAAAAAAAAAAAAAAAAAAAAAAAAAAAAAAAAAAAAAAAAAAAAAAAAAAAAAAAAAAAAAAAAAAAAAAAAAAAAAAAAAAAAAAAAAAAAAAAAAAAAAAAAAAAAAAAAAAAAAAAAAAAAAAAAAAAAAAAAAAAAAAAAAAAAAAAAAAAAAAAAAAAAAAAAAAAAAAAAAAAAAAAAAAAAAAAAAAAAAAAAAAAAAAAAAAAAAAAAAAAAAAAAAAAAAAAAAAAAAAAAAAAAAAAAAAAAAAAAAAAAAAAAAAAAAAAAAAAAAAAAAAAAAAAAAAAAAAAAAAAAAAAAAAAAAAAAAAAAAAAAAAAAAAAAAAAAAAAAAAAAAAAAAAAAAAAAAAAAAAAAAAAAAAAAAAAAAAAAAAAAAAAAAAAAAAAAAAAAAAAAAAAAAAAAAAAAAAAAAAAAAAAAAAAAAAAAAAAAAAAAAAAAAAAAAAAAAAAAAAAAAAAAAAAAAAAAAAAAAAAAAAAAAAAAAAAAAAAAAAAAAAAAAAAAAAAAAAAAAAAAAAAAAAAAAAAAAAAAAAAAAAAAAAAAAAAAAAAAAAAAAAAAAAAAAAAAAAAAAAAAAAAAAAAAAAAAAAAAAAAAAAAAAAAAAAAAAAAAAAAAAAAAAAAAAAAAAAAAAAAAAAAAAAAAAAAAAAAAAAAAAAAAAAAAAAAAAAAAAAAAAAAAAAAAAAAAAAAAAAAAAAAAAAAAAAAAAAAAAAAAAAAAAAAAAAAAAAAAAAAAAAAAAAAAAAAAAAAAAAAAAAAAAAAAAAAAAAAAAAAAAAAAAAAAAAAAAAAAAAAAAAAAAAAAAAAAAAAAAAAAAAAAAAAAAAAAAAAAAAAAAAAAAAAAAAAAAAAAAAAAAAAAAAAAAAAAAAAAAAAAAAAAAAAAAAAAAAAAAAAAAAAAAAAAAAAAAAAAAAAAAAAAAAAAAAAAAAAAAAAAAAAAAAAAAAAAAAAAAAAAAAAAAAAAAAAAAAAAAAAAAAAAAAAAAAAAAAAAAAAAAAAAAAAAAAAAAAAAAAAAAAAAAAAAAAAAAAAAAAAAAAAAAAAAAAAAAAAAAAAAAAAAAAAAAAAAAAAAAAAAAAAAAAAAAAAAAAAAAAAAAAAAAAAAAAAAAAAAAAAAAAAAAAAAAAAAAAAAAAAAAAAAAAAAAAAAAAAAAAAAAAAAAAAAAAAAAAAAAAAAAAAAAAAAAAAAAAAAAAAAAAAAAAAAAAAAAAAAAAAAAAAAAAAAAAAAAAAAAAAAAAAAAAAAAAAAAAAAAAAAAAAAAAAAAAAAAAAAAAAAAAAAAAAAAAAAAAAAAAAAAAAAAAAAAAAAAAAAAAAAAAAAAAAAAAAAAAAAAAAAAAAAAAAAAAAAAAAAAAAAAAAAAAAAAAAAAAAAAAAAAAAAAAAAAAAAAAAAAAAAAAAAAAAAAAAAAAAAAAAAAAAAAAAAAAAAAAAAAAAAAAAAAAAAAAAAAAAAAAAAAAAAAAAAAAAAAAAAAAAAAAAAAAAAAAAAAAAAAAAAAAAAAAAAAAAAAAAAAAAAAAAAAAAAAAAAAAAAAAAAAAAAAAAAAAAAAAAAAAAAAAAAAAAAAAAAAAAAAAAAAAAAAAAAAAAAAAAAAAAAAAAAAAAAAAAAAAAAAAAAAAAAAAAAAAAAAAAAAAAAAAAAAAAAAAAAAAAAAAAAAAAAAAAAAAAAAAAAAAAAAAAAAAAAAAAAAAAAAAAAAAAAAAAAAAAAAAAAAAAAAAAAAAAAAAAAAAAAAAAAAAAAAAAAAAAAAAAAAAAAAAAAAAAAAAAAAAAAAAAAAAAAAAAAAAAAAAAAAAAAAAAAAAAAAAAAAAAAAAAAAAAAAAAAAAAAAAAAAAAAAAAAAAAAAAAAAAAAAAAAAAAAAAAAAAAAAAAAAAAAAAAAAAAAAAAAAAAAAAAAAAAAAAAAAAAAAAAAAAAAAAAAAAAAAAAAAAAAAAAAAAAAAAAAAAAAAAAAAAAAAAAAAAAAAAAAAAAAAAAAAAAAAAAAAAAAAAAAAAAAAAAAAAAAAAAAAAAAAAAAAAAAAAAAAAAAAAAAAAAAAAAAAAAAAAAAAAAAAAAAAAAAAAAAAAAAAAAAAAAAAAAAAAAAAAAAAAAAAAAAAAAAAAAAAAAAAAAAAAAAAAAAAAAAAAAAAAAAAAAAAAAAAAAAAAAAAAAAAAAAAAAAAAAAAAAAAAAAAAAAAAAAAAAAAAAAAAAAAAAAAAAAAAAAAAAAAAAAAAAAAAAAAAAAAAAAAAAAAAAAAAAAAAAAAAAAAAAAAAAAAAAAAAAAAAAAAAAAAAAAAAAAAAAAAAAAAAAAAAAAAAAAAAAAAAAAAAAAAAAAAAAAAAAAAAAAAAAAAAAAAAAAAAAAAAAAAAAAAAAAAAAAAAAAAAAAAAAAAAAAAAAAAAAAAAAAAAAAAAAAAAAAAAAAAAAAAAAAAAAAAAAAAAAAAAAAAAAAAAAAAAAAAAAAAAAAAAAAAAAAAAAAAAAAAAAAAAAAAAAAAAAAAAAAAAAAAAAAAAAAAAAAAAAAAAAAAAAAAAAAAAAAAAAAAAAAAAAAAAAAAAAAAAAAAAAAAAAAAAAAAAAAAAAAAAAAAAAAAAAAAAAAAAAAAAAAAAAAAAAAAAAAAAAAAAAAAAAAAAAAAAAAAAAAAAAAAAAAAAAAAAAAAAAAAAAAAAAAAAAAAAAAAAAAAAAAAAAAAAAAAAAAAAAAAAAAAAAAAAAAAAAAAAAAAAAAAAAAAAAAAAAAAAAAAAAAAAAAAAAAAAAAAAAAAAAAAAAAAAAAAAAAAAAAAAAAAAAAAAAAAAAAAAAAAAAAAAAAAAAAAAAAAAAAAAAAAAAAAAAAAAAAAAAAAAAAAAAAAAAAAAAAAAAAAAAAAAAAAAAAAAAAAAAAAAAAAAAAAAAAAAAAAAAAAAAAAAAAAAAAAAAAAAAAAAAAAAAAAAAAAAAAAAAAAAAAAAAAAAAAAAAAAAAAAAAAAAAAAAAAAAAAAAAAAAAAAAAAAAAAAAAAAAAAAAAAAAAAAAAAAAAAAAAAAAAAAAAAAAAAAAAAAAAAAAAAAAAAAAAAAAAAAAAAAAAAAAAAAAAAAAAAAAAAAAAAAAAAAAAAAAAAAAAAAAAAAAAAAAAAAAAAAAAAAAAAAAAAAAAAAAAAAAAAAAAAAAAAAAAAAAAAAAAAAAAAAAAAAAAAAAAAAAAAAAAAAAAAAAAAAAAAAAAAAAAAAAAAAAAAAAAAAAAAAAAAAAAAAAAAAAAAAAAAAAAAAAAAAAAPZYQDFYnrNY+0LAejT6yYfkfUCzY4t+ydluMEnhxG6RKqOeadRl52+NSPZtDIKvzGRT1Sbi2FeXbXvBD4543lB1AGQ=</c2pa:manifest></metadata><title>Isotipo Isonomy, modo oscuro (simbolo sin fondo)</title><path d="M499.41,772.45 L498.83,772.37 L498.26,772.23 L497.70,772.03 L497.17,771.77 L496.67,771.47 L496.19,771.12 L495.76,770.73 L495.36,770.29 L495.01,769.82 L494.71,769.31 L494.46,768.78 L494.26,768.23 L494.12,767.65 L494.03,767.07 L494.00,766.48 L494.00,145.77 L493.23,146.38 L491.01,147.71 L488.78,148.25 L486.55,148.84 L484.34,149.50 L482.13,150.21 L479.94,150.98 L477.76,151.82 L475.55,152.12 L473.21,150.76 L470.86,149.45 L468.49,148.19 L466.11,147.00 L463.71,145.89 L461.31,144.85 L458.90,143.91 L456.49,143.05 L454.07,142.30 L451.66,141.64 L449.24,141.10 L446.83,140.66 L444.43,140.34 L442.03,140.14 L439.65,140.05 L437.28,140.09 L434.92,140.24 L432.59,140.51 L430.27,140.89 L427.97,141.40 L425.70,142.01 L423.45,142.74 L421.23,143.57 L419.03,144.51 L416.86,145.55 L414.72,146.67 L412.61,147.89 L410.27,148.21 L407.87,148.30 L405.49,148.49 L403.13,148.78 L400.79,149.17 L398.48,149.66 L396.19,150.27 L393.94,150.99 L391.72,151.82 L389.54,152.77 L387.39,153.83 L385.29,155.01 L383.23,156.30 L381.22,157.70 L379.25,159.21 L377.33,160.83 L375.45,162.56 L373.63,164.38 L371.86,166.30 L370.13,168.32 L368.46,170.41 L366.83,172.59 L365.26,174.83 L363.72,177.14 L362.24,179.51 L360.79,181.93 L359.38,184.39 L358.02,186.89 L356.68,189.40 L354.42,189.91 L352.18,190.47 L349.96,191.09 L347.76,191.77 L345.57,192.49 L343.31,193.09 L340.55,192.74 L337.80,192.44 L335.05,192.23 L332.33,192.08 L329.62,192.03 L326.94,192.06 L324.30,192.19 L321.69,192.41 L319.12,192.75 L316.60,193.19 L314.12,193.74 L311.70,194.40 L309.34,195.18 L307.04,196.07 L304.80,197.08 L302.63,198.20 L300.52,199.44 L298.49,200.78 L296.53,202.24 L294.63,203.81 L292.82,205.48 L291.07,207.25 L289.40,209.11 L287.80,211.07 L286.27,213.10 L284.80,215.22 L283.41,217.41 L282.07,219.67 L280.80,221.98 L279.58,224.35 L278.42,226.77 L277.30,229.22 L276.23,231.71 L275.20,234.22 L273.76,236.24 L271.94,237.81 L270.15,239.41 L268.38,241.04 L266.63,242.71 L264.91,244.41 L263.23,246.15 L261.58,247.92 L259.96,249.73 L258.37,251.57 L256.82,253.45 L255.31,255.37 L253.84,257.33 L252.41,259.32 L251.02,261.35 L249.67,263.42 L247.77,264.97 L245.75,266.41 L243.79,267.93 L241.90,269.52 L240.09,271.19 L238.35,272.93 L236.68,274.74 L235.08,276.61 L233.55,278.55 L232.10,280.55 L230.71,282.61 L229.40,284.72 L228.14,286.88 L226.95,289.09 L225.82,291.34 L224.75,293.63 L223.73,295.94 L222.75,298.29 L221.82,300.66 L219.98,302.39 L218.08,304.08 L216.22,305.82 L214.40,307.59 L212.62,309.41 L210.89,311.27 L209.21,313.17 L207.58,315.11 L206.01,317.10 L204.50,319.14 L203.05,321.22 L201.66,323.34 L200.34,325.51 L199.09,327.72 L197.91,329.97 L196.80,332.26 L195.76,334.59 L194.79,336.96 L193.89,339.36 L193.05,341.80 L192.29,344.27 L191.59,346.77 L190.96,349.29 L190.39,351.84 L189.89,354.41 L189.44,357.00 L189.04,359.60 L188.70,362.22 L188.40,364.85 L188.14,367.49 L187.93,370.13 L187.75,372.78 L187.60,375.43 L187.47,378.07 L187.02,380.58 L186.49,381.52 L190.55,382.62 L195.92,383.77 L200.85,384.48 L205.19,384.69 L208.90,384.40 L212.53,383.61 L216.44,382.36 L220.47,380.69 L224.54,378.65 L228.61,376.27 L232.60,373.61 L236.46,370.71 L240.12,367.63 L243.54,364.43 L246.67,361.16 L249.43,357.89 L251.79,354.69 L253.70,351.64 L255.04,348.98 L255.83,346.51 L256.24,343.62 L256.27,340.18 L255.93,336.32 L255.23,332.16 L254.25,327.83 L253.05,323.42 L251.70,319.04 L250.28,314.77 L248.86,310.69 L247.52,306.90 L247.50,306.84 L246.35,303.45 L246.28,303.25 L245.39,300.36 L245.26,299.89 L244.71,297.58 L244.57,296.85 L244.51,296.12 L244.51,295.38 L244.59,294.65 L244.74,293.93 L244.97,293.23 L245.25,292.55 L245.61,291.91 L246.02,291.30 L246.50,290.74 L247.02,290.22 L247.60,289.76 L248.21,289.36 L248.87,289.02 L249.55,288.74 L250.26,288.54 L250.98,288.40 L251.71,288.34 L252.45,288.35 L253.18,288.43 L253.90,288.58 L254.60,288.80 L255.28,289.09 L255.92,289.44 L256.53,289.86 L257.10,290.33 L257.61,290.86 L258.07,291.43 L258.47,292.05 L258.81,292.70 L259.09,293.38 L259.29,294.09 L259.79,296.16 L260.58,298.71 L261.69,301.96 L263.01,305.73 L263.02,305.75 L264.46,309.89 L264.49,309.99 L265.96,314.38 L266.01,314.55 L267.42,319.12 L267.49,319.36 L268.76,324.04 L268.84,324.35 L269.91,329.06 L269.99,329.48 L270.77,334.13 L270.84,334.69 L271.25,339.21 L271.28,339.95 L271.24,344.25 L271.16,345.23 L270.60,349.24 L270.48,349.87 L270.31,350.49 L269.14,354.13 L268.94,354.68 L268.70,355.20 L266.94,358.70 L266.60,359.30 L264.36,362.89 L264.03,363.36 L261.35,367.00 L261.04,367.39 L257.97,371.02 L257.67,371.36 L254.25,374.94 L253.95,375.23 L250.23,378.72 L249.92,378.99 L245.95,382.33 L245.63,382.58 L241.44,385.72 L241.10,385.97 L236.75,388.87 L236.38,389.10 L231.91,391.72 L231.48,391.95 L226.94,394.22 L226.45,394.45 L221.89,396.34 L221.31,396.55 L216.76,398.00 L216.07,398.19 L211.59,399.16 L210.59,399.31 L205.89,399.68 L204.93,399.69 L199.76,399.44 L199.07,399.37 L193.53,398.58 L193.02,398.49 L187.21,397.24 L186.84,397.15 L180.86,395.54 L180.57,395.46 L178.56,394.83 L177.84,396.09 L176.62,398.38 L175.45,400.69 L174.35,403.03 L173.30,405.39 L172.33,407.78 L171.42,410.20 L170.58,412.64 L169.81,415.10 L169.12,417.58 L168.50,420.09 L167.95,422.61 L167.48,425.15 L167.09,427.71 L166.76,430.28 L166.51,432.87 L166.33,435.46 L166.22,438.06 L166.18,440.68 L166.20,443.29 L166.28,445.91 L166.42,448.54 L166.61,451.16 L166.85,453.78 L167.14,456.41 L167.47,459.02 L167.84,461.64 L168.25,464.24 L167.85,466.76 L167.08,469.25 L166.36,471.74 L165.68,474.25 L165.04,476.78 L164.46,479.31 L163.94,481.85 L163.49,484.40 L163.10,486.96 L162.80,489.53 L162.57,492.10 L162.42,494.67 L162.36,497.25 L162.38,499.83 L162.50,502.41 L162.71,504.99 L163.02,507.56 L163.42,510.12 L163.91,512.67 L164.50,515.22 L165.19,517.75 L165.96,520.27 L166.82,522.77 L167.77,525.25 L168.62,527.73 L169.02,530.24 L169.45,532.75 L169.92,535.24 L170.43,537.73 L170.97,540.21 L171.54,542.69 L172.13,545.15 L172.75,547.61 L173.38,550.06 L173.95,552.51 L173.40,555.15 L172.87,557.80 L172.36,560.46 L171.90,563.13 L171.47,565.80 L171.10,568.48 L170.78,571.15 L170.53,573.83 L170.34,576.50 L170.23,579.16 L170.20,581.81 L170.25,584.45 L170.39,587.08 L170.62,589.68 L170.88,591.67 L174.35,590.25 L174.45,590.21 L181.26,587.54 L181.40,587.48 L188.34,584.92 L188.53,584.85 L195.46,582.51 L195.73,582.43 L202.52,580.41 L202.89,580.31 L209.42,578.72 L209.92,578.62 L216.08,577.56 L216.79,577.47 L222.43,577.04 L223.46,577.04 L228.46,577.35 L229.04,577.41 L229.62,577.51 L234.25,578.53 L235.10,578.77 L239.69,580.37 L240.41,580.67 L244.92,582.79 L245.52,583.11 L249.91,585.68 L250.42,586.01 L254.66,588.98 L255.10,589.31 L259.16,592.62 L259.54,592.95 L263.37,596.54 L263.71,596.88 L267.29,600.68 L267.60,601.03 L270.89,604.99 L271.18,605.36 L274.14,609.41 L274.41,609.81 L277.02,613.91 L277.28,614.35 L279.49,618.42 L279.75,618.95 L281.53,622.93 L281.78,623.56 L283.10,627.40 L283.26,627.96 L283.38,628.52 L284.09,632.49 L284.17,633.11 L284.20,633.75 L284.23,638.09 L284.18,639.03 L283.63,643.66 L283.52,644.35 L282.48,649.20 L282.35,649.71 L280.91,654.69 L280.79,655.07 L279.05,660.10 L278.94,660.38 L276.98,665.38 L276.90,665.59 L274.82,670.47 L274.76,670.61 L272.64,675.30 L272.61,675.38 L270.56,679.79 L270.55,679.81 L268.66,683.83 L267.06,687.32 L265.87,690.10 L265.06,692.37 L264.78,693.05 L264.43,693.69 L264.02,694.31 L263.55,694.87 L263.03,695.39 L262.46,695.86 L261.85,696.27 L261.20,696.62 L260.52,696.90 L259.82,697.11 L259.09,697.25 L258.36,697.32 L257.62,697.32 L256.89,697.25 L256.17,697.11 L255.47,696.89 L254.79,696.61 L254.14,696.26 L253.53,695.85 L252.96,695.38 L252.44,694.86 L251.97,694.29 L251.56,693.68 L251.22,693.03 L250.94,692.35 L250.72,691.65 L250.58,690.93 L250.51,690.19 L250.51,689.46 L250.58,688.72 L250.73,688.00 L250.94,687.30 L251.83,684.83 L251.99,684.41 L253.31,681.33 L253.39,681.15 L255.04,677.55 L255.07,677.49 L256.96,673.45 L258.99,669.09 L261.05,664.52 L263.06,659.81 L264.92,655.05 L266.55,650.34 L267.86,645.80 L268.78,641.55 L269.23,637.72 L269.21,634.48 L268.72,631.71 L267.70,628.74 L266.17,625.33 L264.23,621.74 L261.89,618.07 L259.20,614.40 L256.21,610.80 L252.95,607.33 L249.48,604.08 L245.83,601.11 L242.06,598.47 L238.23,596.22 L234.38,594.41 L230.58,593.08 L226.95,592.28 L223.05,592.04 L218.28,592.40 L212.72,593.36 L206.61,594.84 L200.13,596.77 L193.43,599.03 L186.67,601.53 L179.98,604.16 L174.72,606.31 L175.06,607.17 L176.11,609.53 L177.26,611.85 L178.51,614.12 L179.86,616.35 L181.31,618.54 L182.84,620.67 L184.47,622.76 L186.18,624.80 L187.97,626.80 L189.83,628.74 L191.76,630.64 L193.75,632.50 L195.80,634.30 L197.39,636.30 L198.41,638.54 L199.48,640.76 L200.61,642.94 L201.80,645.09 L203.06,647.21 L204.39,649.28 L205.78,651.31 L207.24,653.30 L208.77,655.24 L210.36,657.14 L212.02,658.99 L212.10,661.72 L212.23,664.43 L212.42,667.13 L212.67,669.81 L212.98,672.47 L213.36,675.11 L213.80,677.72 L214.32,680.29 L214.91,682.83 L215.58,685.34 L216.32,687.80 L217.14,690.23 L218.04,692.61 L219.01,694.94 L220.06,697.22 L221.18,699.46 L222.38,701.64 L223.65,703.78 L224.99,705.86 L226.39,707.89 L227.86,709.87 L229.40,711.80 L230.99,713.68 L231.81,716.17 L232.53,718.76 L233.33,721.30 L234.20,723.79 L235.16,726.22 L236.20,728.60 L237.33,730.90 L238.55,733.14 L239.86,735.29 L241.27,737.37 L242.76,739.36 L244.36,741.27 L246.04,743.08 L247.82,744.80 L249.69,746.42 L251.65,747.95 L253.70,749.37 L255.83,750.70 L258.04,751.93 L260.33,753.06 L262.69,754.09 L265.12,755.03 L267.61,755.88 L270.15,756.64 L272.75,757.31 L275.39,757.90 L278.07,758.41 L280.78,758.85 L283.52,759.22 L286.27,759.54 L289.04,759.80 L291.82,760.02 L294.59,760.20 L296.25,761.77 L297.40,764.00 L297.96,767.04 L298.57,770.06 L299.21,773.07 L299.91,776.04 L300.66,778.98 L301.48,781.88 L302.36,784.72 L303.30,787.51 L304.32,790.23 L305.41,792.87 L306.57,795.44 L307.81,797.91 L309.13,800.30 L310.53,802.58 L312.01,804.77 L313.57,806.84 L315.20,808.81 L316.92,810.66 L318.70,812.40 L320.56,814.02 L322.50,815.52 L324.49,816.90 L326.56,818.17 L328.68,819.32 L330.87,820.35 L333.10,821.28 L335.39,822.09 L337.72,822.81 L340.09,823.42 L342.50,823.93 L344.94,824.36 L347.40,824.70 L349.89,824.97 L352.39,825.17 L354.59,826.03 L356.59,827.32 L358.62,828.56 L360.68,829.74 L362.76,830.85 L364.87,831.90 L367.01,832.89 L369.17,833.81 L371.36,834.67 L373.57,835.45 L375.80,836.17 L378.06,836.81 L380.33,837.39 L382.63,837.90 L384.94,838.34 L387.27,838.71 L389.61,839.01 L391.97,839.26 L394.33,839.44 L396.71,839.56 L398.87,840.38 L400.84,841.85 L402.84,843.23 L404.89,844.52 L406.96,845.71 L409.06,846.81 L411.20,847.82 L413.36,848.74 L415.54,849.57 L417.75,850.32 L419.98,850.98 L422.23,851.57 L424.49,852.09 L426.76,852.54 L429.05,852.92 L431.09,854.55 L433.15,856.14 L435.24,857.66 L437.36,859.11 L439.50,860.48 L441.67,861.78 L443.86,862.99 L446.07,864.12 L448.31,865.15 L450.57,866.09 L452.84,866.94 L455.14,867.69 L457.45,868.33 L459.78,868.88 L462.12,869.33 L464.47,869.67 L466.83,869.92 L469.20,870.07 L471.58,870.12 L473.96,870.07 L476.35,869.94 L478.73,869.71 L481.12,869.41 L483.50,869.02 L485.88,868.55 L488.25,868.02 L490.62,867.42 L492.98,866.77 L495.33,866.06 L497.67,865.30 L500.00,864.50 L500.00,772.48 Z M323.88,237.66 L323.80,237.41 L322.79,233.91 L322.62,233.19 L322.53,232.46 L322.50,231.73 L322.55,230.99 L322.67,230.27 L322.85,229.55 L323.11,228.86 L323.44,228.20 L323.82,227.58 L324.27,226.99 L324.77,226.45 L325.32,225.97 L325.92,225.54 L326.56,225.17 L327.23,224.86 L327.92,224.63 L328.64,224.46 L329.37,224.36 L330.11,224.33 L330.84,224.38 L331.57,224.50 L332.28,224.69 L332.97,224.94 L333.63,225.27 L334.25,225.66 L334.84,226.10 L335.38,226.60 L335.86,227.16 L336.29,227.75 L336.66,228.39 L336.97,229.06 L337.21,229.76 L338.18,233.13 L339.52,237.24 L341.21,242.15 L343.16,247.71 L343.16,247.73 L345.28,253.82 L345.30,253.87 L347.51,260.36 L347.54,260.45 L349.76,267.26 L349.80,267.39 L351.95,274.41 L352.00,274.57 L354.00,281.71 L354.06,281.92 L355.85,289.08 L355.91,289.35 L357.40,296.44 L357.47,296.79 L358.59,303.70 L358.65,304.15 L359.32,310.79 L359.35,311.37 L359.50,317.66 L359.47,318.46 L358.96,324.56 L358.86,325.34 L357.68,331.48 L357.54,332.09 L355.82,338.27 L355.68,338.72 L353.52,344.91 L353.40,345.23 L350.92,351.42 L350.84,351.62 L348.16,357.80 L348.11,357.90 L345.33,364.05 L342.60,370.10 L340.05,375.98 L337.78,381.66 L335.91,387.11 L334.53,392.28 L333.72,397.12 L333.51,401.67 L333.92,406.28 L334.90,411.20 L336.40,416.35 L338.33,421.63 L340.63,426.97 L343.21,432.28 L345.96,437.49 L348.80,442.55 L351.65,447.38 L354.40,451.94 L356.96,456.15 L356.99,456.21 L359.24,459.99 L359.33,460.14 L361.18,463.42 L361.37,463.77 L362.72,466.50 L363.01,467.17 L363.24,467.87 L363.40,468.59 L363.48,469.32 L363.50,470.06 L363.44,470.79 L363.31,471.52 L363.11,472.23 L362.84,472.91 L362.50,473.57 L362.11,474.19 L361.65,474.76 L361.14,475.29 L360.58,475.77 L359.98,476.19 L359.33,476.55 L358.66,476.85 L357.96,477.07 L357.24,477.23 L356.51,477.32 L355.77,477.33 L355.04,477.27 L354.31,477.14 L353.61,476.94 L352.92,476.67 L352.26,476.34 L351.65,475.94 L351.07,475.48 L350.54,474.97 L350.06,474.41 L349.64,473.81 L349.28,473.16 L348.02,470.62 L346.31,467.59 L344.12,463.91 L341.57,459.72 L341.56,459.70 L338.78,455.10 L338.74,455.02 L335.84,450.09 L335.77,449.96 L332.84,444.76 L332.74,444.58 L329.88,439.17 L329.76,438.93 L327.06,433.36 L326.92,433.06 L324.48,427.38 L324.32,426.99 L322.22,421.27 L322.06,420.78 L320.41,415.07 L320.25,414.44 L319.13,408.80 L319.02,408.01 L318.53,402.50 L318.51,401.50 L318.75,395.99 L318.85,395.09 L319.80,389.44 L319.95,388.76 L321.49,382.99 L321.64,382.49 L323.65,376.62 L323.78,376.28 L326.15,370.32 L326.24,370.11 L328.86,364.07 L328.91,363.97 L331.67,357.87 L334.42,351.77 L337.04,345.75 L339.41,339.82 L341.43,334.01 L343.01,328.36 L344.05,322.91 L344.49,317.60 L344.36,312.01 L343.74,305.88 L342.69,299.36 L341.26,292.58 L339.53,285.66 L337.58,278.72 L335.47,271.84 L333.29,265.14 L331.11,258.72 L329.00,252.67 L327.05,247.09 L327.03,247.05 L325.32,242.06 L325.28,241.95 Z" fill="#FCF7EC" fill-rule="evenodd"/><path d="M830.59,494.78 L829.81,492.27 L828.96,489.78 L828.04,487.30 L827.04,484.84 L825.98,482.39 L824.86,479.96 L823.68,477.55 L822.45,475.16 L821.64,472.75 L822.11,470.24 L822.50,467.72 L822.81,465.20 L823.05,462.68 L823.22,460.17 L823.32,457.65 L823.34,455.14 L823.30,452.63 L823.20,450.13 L823.12,447.63 L824.12,444.93 L825.05,442.23 L825.91,439.52 L826.70,436.81 L827.40,434.09 L828.01,431.37 L828.54,428.66 L828.96,425.95 L829.29,423.25 L829.52,420.56 L829.64,417.89 L829.65,415.24 L829.55,412.60 L829.35,409.99 L829.04,407.40 L828.62,404.84 L828.09,402.30 L827.46,399.80 L826.73,397.33 L825.89,394.89 L825.39,393.59 L819.43,395.46 L819.14,395.54 L813.16,397.15 L812.79,397.24 L806.98,398.49 L806.47,398.58 L800.93,399.37 L800.24,399.44 L795.07,399.69 L794.11,399.68 L789.41,399.31 L788.41,399.16 L783.93,398.19 L783.24,398.00 L778.69,396.55 L778.11,396.34 L773.55,394.45 L773.06,394.22 L768.52,391.95 L768.09,391.72 L763.62,389.10 L763.25,388.87 L758.90,385.97 L758.56,385.72 L754.37,382.58 L754.05,382.33 L750.08,378.99 L749.77,378.72 L746.05,375.23 L745.75,374.94 L742.33,371.36 L742.03,371.02 L738.96,367.39 L738.65,367.00 L735.97,363.36 L735.64,362.89 L733.40,359.30 L733.06,358.70 L731.30,355.20 L731.06,354.68 L730.86,354.13 L729.69,350.49 L729.52,349.87 L729.40,349.24 L728.84,345.23 L728.76,344.25 L728.72,339.95 L728.75,339.21 L729.16,334.69 L729.23,334.13 L730.01,329.48 L730.09,329.06 L731.16,324.35 L731.24,324.04 L732.51,319.36 L732.58,319.12 L733.99,314.55 L734.04,314.38 L735.51,309.99 L735.54,309.89 L736.98,305.75 L736.99,305.73 L738.31,301.96 L739.42,298.71 L740.21,296.16 L740.71,294.09 L740.91,293.38 L741.19,292.70 L741.53,292.05 L741.93,291.43 L742.39,290.86 L742.90,290.33 L743.47,289.86 L744.08,289.44 L744.72,289.09 L745.40,288.80 L746.10,288.58 L746.82,288.43 L747.55,288.35 L748.29,288.34 L749.02,288.40 L749.74,288.54 L750.45,288.74 L751.13,289.02 L751.79,289.36 L752.40,289.76 L752.98,290.22 L753.50,290.74 L753.98,291.30 L754.39,291.91 L754.75,292.55 L755.03,293.23 L755.26,293.93 L755.41,294.65 L755.49,295.38 L755.49,296.12 L755.43,296.85 L755.29,297.58 L754.74,299.89 L754.61,300.36 L753.72,303.25 L753.65,303.45 L752.50,306.84 L752.48,306.90 L751.14,310.69 L749.72,314.77 L748.30,319.04 L746.95,323.42 L745.75,327.83 L744.77,332.16 L744.07,336.32 L743.73,340.18 L743.76,343.62 L744.17,346.51 L744.96,348.98 L746.30,351.64 L748.21,354.69 L750.57,357.89 L753.33,361.16 L756.46,364.43 L759.88,367.63 L763.54,370.71 L767.40,373.61 L771.39,376.27 L775.46,378.65 L779.53,380.69 L783.56,382.36 L787.47,383.61 L791.10,384.40 L794.81,384.69 L799.15,384.48 L804.08,383.77 L809.45,382.62 L815.10,381.09 L818.41,380.06 L817.61,378.82 L816.14,376.67 L814.61,374.55 L813.04,372.46 L811.43,370.40 L809.78,368.37 L808.11,366.36 L806.42,364.38 L805.23,362.19 L804.65,359.72 L804.05,357.25 L803.43,354.79 L802.78,352.34 L802.10,349.90 L801.39,347.46 L800.64,345.05 L799.86,342.64 L799.04,340.25 L798.18,337.88 L797.28,335.53 L796.91,332.88 L796.46,330.26 L795.92,327.68 L795.30,325.14 L794.60,322.63 L793.80,320.18 L792.93,317.76 L791.97,315.40 L790.92,313.08 L789.80,310.82 L788.60,308.60 L787.33,306.43 L785.98,304.31 L784.57,302.24 L783.09,300.22 L781.55,298.25 L779.96,296.32 L778.32,294.43 L776.63,292.59 L774.91,290.78 L773.15,289.01 L771.36,287.27 L769.55,285.56 L768.54,283.21 L767.67,280.74 L766.77,278.29 L765.82,275.85 L764.84,273.44 L763.82,271.05 L762.74,268.70 L761.63,266.37 L760.46,264.08 L759.23,261.84 L757.96,259.63 L756.63,257.47 L755.24,255.35 L753.80,253.29 L752.30,251.28 L750.75,249.32 L749.13,247.42 L747.47,245.58 L745.74,243.79 L743.96,242.07 L742.13,240.40 L740.25,238.79 L738.33,237.25 L736.35,235.76 L734.33,234.33 L732.28,232.96 L730.18,231.65 L728.05,230.38 L725.89,229.17 L723.70,228.01 L721.48,226.89 L719.25,225.82 L717.00,224.78 L714.85,223.62 L712.92,222.20 L711.59,219.99 L710.24,217.79 L708.87,215.60 L707.47,213.44 L706.04,211.30 L704.57,209.19 L703.08,207.11 L701.55,205.06 L699.98,203.06 L698.37,201.11 L696.71,199.20 L695.02,197.35 L693.28,195.56 L691.51,193.82 L689.68,192.15 L687.81,190.54 L685.90,189.00 L683.95,187.53 L681.95,186.14 L679.91,184.81 L677.84,183.56 L675.72,182.38 L673.57,181.27 L671.38,180.24 L669.15,179.27 L666.90,178.38 L664.62,177.56 L662.31,176.81 L659.97,176.12 L657.62,175.50 L655.24,174.93 L652.85,174.43 L650.44,173.98 L648.02,173.57 L645.92,172.49 L644.01,170.96 L642.08,169.48 L640.11,168.06 L638.12,166.69 L636.09,165.39 L634.03,164.17 L631.94,163.02 L629.82,161.95 L627.66,160.96 L625.46,160.07 L623.24,159.27 L620.98,158.57 L618.69,157.98 L616.37,157.48 L614.02,157.09 L611.64,156.80 L609.24,156.61 L606.82,156.53 L604.37,156.56 L602.07,156.11 L599.93,155.18 L597.76,154.30 L595.58,153.46 L593.38,152.68 L591.17,151.95 L588.95,151.27 L586.71,150.64 L584.47,150.05 L582.21,149.51 L579.95,149.01 L577.67,148.55 L575.39,148.13 L573.11,147.75 L570.82,147.40 L568.78,145.78 L566.72,144.18 L564.64,142.62 L562.54,141.12 L560.41,139.68 L558.26,138.32 L556.09,137.03 L553.89,135.82 L551.66,134.71 L549.41,133.70 L547.15,132.80 L544.86,132.01 L542.55,131.34 L540.22,130.79 L537.88,130.36 L535.52,130.07 L533.15,129.91 L530.77,129.88 L528.38,129.99 L525.99,130.24 L523.60,130.62 L521.20,131.14 L518.81,131.79 L516.42,132.56 L514.03,133.47 L511.66,134.49 L509.30,135.64 L506.95,136.89 L506.00,137.44 L506.00,766.48 L505.97,767.07 L505.88,767.65 L505.74,768.23 L505.54,768.78 L505.29,769.31 L504.99,769.82 L504.64,770.29 L504.24,770.73 L503.81,771.12 L503.33,771.47 L502.83,771.77 L502.30,772.03 L501.74,772.23 L501.17,772.37 L500.59,772.45 L500.00,772.48 L500.00,864.50 L502.32,863.67 L504.63,862.81 L506.93,861.92 L509.23,861.53 L511.56,861.97 L513.89,862.39 L516.22,862.79 L518.57,863.16 L520.91,863.50 L523.26,863.80 L525.62,864.17 L528.01,864.79 L530.40,865.33 L532.80,865.79 L535.19,866.17 L537.59,866.46 L539.98,866.66 L542.37,866.77 L544.75,866.78 L547.13,866.71 L549.49,866.54 L551.85,866.28 L554.19,865.93 L556.53,865.48 L558.84,864.95 L561.14,864.34 L563.43,863.64 L565.70,862.87 L567.95,862.02 L570.18,861.10 L572.40,860.11 L574.59,859.06 L576.77,857.96 L578.93,856.81 L581.07,855.61 L583.20,854.37 L585.31,853.10 L587.40,851.79 L589.73,851.45 L592.14,851.40 L594.55,851.31 L596.95,851.18 L599.36,851.00 L601.75,850.78 L604.14,850.49 L606.51,850.15 L608.87,849.74 L611.22,849.26 L613.54,848.71 L615.85,848.08 L618.13,847.38 L620.39,846.59 L622.62,845.72 L624.82,844.77 L626.99,843.73 L629.13,842.61 L631.23,841.40 L633.30,840.11 L635.33,838.74 L637.32,837.28 L639.27,835.74 L641.18,834.13 L643.05,832.44 L644.88,830.68 L646.67,828.86 L648.42,826.97 L650.14,825.03 L652.00,823.44 L653.85,821.82 L655.68,820.18 L657.50,818.53 L659.29,816.86 L661.17,815.35 L663.55,814.84 L665.94,814.30 L668.33,813.74 L670.71,813.15 L673.08,812.53 L675.45,811.86 L677.79,811.14 L680.12,810.38 L682.43,809.55 L684.71,808.67 L686.96,807.72 L689.18,806.71 L691.37,805.62 L693.51,804.47 L695.61,803.23 L697.67,801.92 L699.68,800.54 L701.64,799.07 L703.55,797.53 L705.40,795.90 L707.19,794.20 L708.93,792.42 L710.61,790.56 L712.22,788.63 L713.78,786.62 L715.28,784.55 L716.71,782.41 L718.09,780.20 L719.40,777.94 L720.66,775.62 L721.86,773.24 L723.01,770.82 L724.10,768.35 L725.14,765.85 L726.58,763.82 L728.38,762.22 L730.13,760.57 L731.84,758.86 L733.50,757.10 L735.11,755.28 L736.66,753.40 L738.15,751.45 L739.57,749.45 L740.93,747.37 L742.22,745.24 L743.43,743.04 L744.57,740.77 L745.64,738.44 L746.62,736.06 L747.54,733.61 L749.22,731.90 L751.15,730.41 L753.04,728.86 L754.89,727.28 L756.69,725.64 L758.46,723.96 L760.18,722.24 L761.85,720.46 L763.47,718.64 L765.05,716.78 L766.58,714.87 L768.05,712.91 L769.48,710.92 L770.86,708.88 L772.19,706.81 L773.46,704.70 L774.70,702.56 L775.88,700.38 L777.02,698.17 L779.05,696.60 L781.14,695.04 L783.18,693.44 L785.16,691.78 L787.08,690.06 L788.93,688.28 L790.70,686.44 L792.39,684.53 L793.99,682.56 L795.50,680.52 L796.90,678.42 L798.21,676.25 L799.40,674.01 L800.48,671.71 L801.45,669.34 L802.30,666.91 L803.04,664.42 L803.65,661.87 L804.14,659.27 L804.52,656.61 L804.78,653.91 L804.92,651.17 L804.94,648.38 L804.86,645.56 L804.66,642.70 L804.37,639.82 L803.98,636.92 L803.49,633.99 L802.92,631.06 L802.27,628.11 L801.55,625.16 L800.77,622.21 L799.93,619.27 L799.04,616.34 L798.45,613.55 L798.66,611.07 L798.83,608.60 L800.07,606.51 L802.35,604.77 L804.60,603.00 L806.81,601.18 L808.50,599.74 L806.57,599.03 L799.87,596.77 L793.39,594.84 L787.28,593.36 L781.72,592.40 L776.95,592.04 L773.05,592.28 L769.42,593.08 L765.62,594.41 L761.77,596.22 L757.94,598.47 L754.17,601.11 L750.52,604.08 L747.05,607.33 L743.79,610.80 L740.80,614.40 L738.11,618.07 L735.77,621.74 L733.83,625.33 L732.30,628.74 L731.28,631.71 L730.79,634.48 L730.77,637.72 L731.22,641.55 L732.14,645.80 L733.45,650.34 L735.08,655.05 L736.94,659.81 L738.95,664.52 L741.01,669.09 L743.04,673.45 L744.93,677.49 L744.96,677.55 L746.61,681.15 L746.69,681.33 L748.01,684.41 L748.17,684.83 L749.06,687.30 L749.27,688.00 L749.42,688.72 L749.49,689.46 L749.49,690.19 L749.42,690.93 L749.28,691.65 L749.06,692.35 L748.78,693.03 L748.44,693.68 L748.03,694.29 L747.56,694.86 L747.04,695.38 L746.47,695.85 L745.86,696.26 L745.21,696.61 L744.53,696.89 L743.83,697.11 L743.11,697.25 L742.38,697.32 L741.64,697.32 L740.91,697.25 L740.18,697.11 L739.48,696.90 L738.80,696.62 L738.15,696.27 L737.54,695.86 L736.97,695.39 L736.45,694.87 L735.98,694.31 L735.57,693.69 L735.22,693.05 L734.94,692.37 L734.13,690.10 L732.94,687.32 L731.34,683.83 L729.45,679.81 L729.44,679.79 L727.39,675.38 L727.36,675.30 L725.24,670.61 L725.18,670.47 L723.10,665.59 L723.02,665.38 L721.06,660.38 L720.95,660.10 L719.21,655.07 L719.09,654.69 L717.65,649.71 L717.52,649.20 L716.48,644.35 L716.37,643.66 L715.82,639.03 L715.77,638.09 L715.80,633.75 L715.83,633.11 L715.91,632.49 L716.62,628.52 L716.74,627.96 L716.90,627.40 L718.22,623.56 L718.47,622.93 L720.25,618.95 L720.51,618.42 L722.72,614.35 L722.98,613.91 L725.59,609.81 L725.86,609.41 L728.82,605.36 L729.11,604.99 L732.40,601.03 L732.71,600.68 L736.29,596.88 L736.63,596.54 L740.46,592.95 L740.84,592.62 L744.90,589.31 L745.34,588.98 L749.58,586.01 L750.09,585.68 L754.48,583.11 L755.08,582.79 L759.59,580.67 L760.31,580.37 L764.90,578.77 L765.75,578.53 L770.38,577.51 L770.96,577.41 L771.54,577.35 L776.54,577.04 L777.57,577.04 L783.21,577.47 L783.92,577.56 L790.08,578.62 L790.58,578.72 L797.11,580.31 L797.48,580.41 L804.27,582.43 L804.54,582.51 L811.47,584.85 L811.66,584.92 L818.60,587.48 L818.74,587.54 L820.03,588.04 L820.64,587.30 L822.28,585.14 L823.83,582.93 L825.27,580.69 L826.60,578.40 L827.81,576.07 L828.91,573.70 L829.89,571.30 L830.75,568.86 L831.49,566.40 L832.10,563.90 L832.60,561.38 L832.97,558.84 L833.23,556.27 L833.37,553.69 L833.40,551.10 L833.32,548.49 L833.14,545.88 L832.86,543.26 L832.48,540.64 L832.01,538.01 L831.46,535.39 L831.67,532.86 L832.20,530.35 L832.65,527.84 L833.02,525.31 L833.31,522.78 L833.51,520.23 L833.62,517.68 L833.65,515.13 L833.58,512.58 L833.42,510.02 L833.17,507.47 L832.83,504.92 L832.40,502.37 L831.88,499.83 L831.28,497.30 Z M660.08,266.60 L661.74,262.57 L662.96,259.25 L663.24,258.57 L663.60,257.93 L664.01,257.32 L664.48,256.75 L665.01,256.24 L665.58,255.77 L666.19,255.37 L666.85,255.03 L667.53,254.75 L668.23,254.54 L668.96,254.41 L669.69,254.34 L670.43,254.34 L671.16,254.42 L671.88,254.57 L672.58,254.79 L673.26,255.08 L673.90,255.43 L674.51,255.84 L675.08,256.31 L675.60,256.84 L676.06,257.41 L676.46,258.03 L676.80,258.68 L677.08,259.36 L677.29,260.07 L677.43,260.79 L677.49,261.52 L677.49,262.26 L677.41,262.99 L677.26,263.71 L677.04,264.41 L675.78,267.87 L675.67,268.14 L673.93,272.36 L673.88,272.49 L671.76,277.40 L671.75,277.44 L669.34,282.93 L666.74,288.89 L664.04,295.21 L661.34,301.80 L658.72,308.57 L656.26,315.41 L654.07,322.22 L652.21,328.90 L650.79,335.32 L649.87,341.37 L649.51,346.88 L649.79,352.11 L650.69,357.48 L652.16,363.07 L654.11,368.83 L656.44,374.73 L659.05,380.74 L661.83,386.85 L664.63,392.99 L664.67,393.09 L667.35,399.20 L667.44,399.41 L669.89,405.47 L670.01,405.81 L672.11,411.81 L672.26,412.30 L673.88,418.24 L674.03,418.91 L675.06,424.77 L675.17,425.65 L675.49,431.41 L675.48,432.35 L675.08,438.19 L674.99,438.91 L673.99,444.96 L673.87,445.52 L672.35,451.71 L672.23,452.15 L670.28,458.40 L670.17,458.75 L667.88,465.00 L667.78,465.27 L665.25,471.45 L665.16,471.66 L662.48,477.69 L662.41,477.85 L659.65,483.67 L659.60,483.78 L656.87,489.31 L656.84,489.38 L654.23,494.55 L654.22,494.56 L651.82,499.28 L649.75,503.42 L648.12,506.86 L646.92,509.73 L646.60,510.39 L646.22,511.02 L645.78,511.61 L645.28,512.16 L644.74,512.65 L644.14,513.08 L643.51,513.46 L642.84,513.77 L642.15,514.02 L641.44,514.19 L640.71,514.30 L639.97,514.33 L639.24,514.29 L638.51,514.18 L637.80,514.00 L637.10,513.75 L636.44,513.43 L635.81,513.05 L635.22,512.61 L634.68,512.12 L634.18,511.57 L633.75,510.98 L633.37,510.34 L633.06,509.68 L632.81,508.98 L632.64,508.27 L632.53,507.54 L632.50,506.80 L632.54,506.07 L632.65,505.34 L632.83,504.63 L633.08,503.94 L634.35,500.91 L634.49,500.60 L636.23,496.93 L636.29,496.79 L638.41,492.55 L638.44,492.50 L640.84,487.77 L643.44,482.64 L646.12,477.20 L648.81,471.52 L651.41,465.67 L653.84,459.72 L656.01,453.78 L657.84,447.91 L659.24,442.21 L660.14,436.80 L660.49,431.78 L660.21,426.93 L659.32,421.86 L657.86,416.50 L655.91,410.92 L653.57,405.13 L650.96,399.17 L648.18,393.07 L648.17,393.06 L645.37,386.89 L645.32,386.77 L642.63,380.58 L642.54,380.36 L640.09,374.17 L639.96,373.81 L637.87,367.63 L637.72,367.13 L636.10,360.97 L635.96,360.31 L634.93,354.17 L634.83,353.32 L634.51,347.23 L634.52,346.35 L634.92,340.08 L634.99,339.43 L636.00,332.82 L636.09,332.32 L637.61,325.46 L637.71,325.08 L639.65,318.06 L639.74,317.77 L642.02,310.69 L642.10,310.46 L644.63,303.41 L644.70,303.23 L647.38,296.31 L647.44,296.17 L650.19,289.47 L650.23,289.37 L652.95,282.98 L652.98,282.92 L655.59,276.92 L655.60,276.91 L658.00,271.43 Z" fill="#CE8D58" fill-rule="evenodd"/></svg>